# Blender v3.1.2 OBJ File: ''
# www.blender.org
mtllib tree1Trunk.mtl
o low_poly_tree
v 0.000000 0.000000 0.000000
v 0.000000 88.029396 0.000014
v 4.532092 0.000000 -1.214370
v 4.532092 0.000000 -1.214370
v 3.493171 9.781044 -1.883500
v 2.559369 19.562088 -2.277642
v 1.757668 29.343130 -2.510206
v 1.064628 39.124176 -2.679823
v 0.417920 48.905220 -2.853107
v -0.267080 58.686260 -3.052731
v -1.077656 68.467308 -3.252172
v -2.083424 78.248352 -3.377733
v -3.317721 88.029396 -3.317707
v -3.317721 88.029396 -3.317707
v 2.691202 0.000001 -3.843434
v 2.691202 0.000001 -3.843434
v 1.465233 9.781045 -3.688211
v 0.496548 19.562088 -3.389905
v -0.267080 29.343130 -3.052735
v -0.907009 39.124176 -2.737192
v -1.513802 48.905220 -2.454239
v -2.166859 58.686260 -2.166850
v -2.915996 68.467308 -1.798602
v -3.767168 78.248352 -1.248291
v -4.674112 88.029396 -0.408917
v -4.674112 88.029396 -0.408917
v -0.408932 0.000001 -4.674112
v -0.408932 0.000001 -4.674112
v -1.248304 9.781045 -3.767166
v -1.798613 19.562088 -2.915993
v -2.166859 29.343130 -2.166854
v -2.454247 39.124176 -1.513796
v -2.737198 48.905220 -0.907001
v -3.052740 58.686260 -0.267071
v -3.389909 68.467308 0.496559
v -3.688213 78.248352 1.465246
v -3.843434 88.029396 2.691216
v -3.843434 88.029396 2.691216
v -3.317721 0.000001 -3.317721
v -3.317721 0.000001 -3.317721
v -3.377745 9.781044 -2.083422
v -3.252183 19.562088 -1.077653
v -3.052740 29.343130 -0.267076
v -2.853115 39.124176 0.417926
v -2.679830 48.905220 1.064636
v -2.510211 58.686260 1.757678
v -2.277645 68.467308 2.559381
v -1.883501 78.248352 3.493184
v -1.214370 88.029396 4.532106
v -1.214370 88.029396 4.532106
v -4.674112 0.000000 -0.408932
v -4.674112 0.000000 -0.408932
v -3.926702 9.781044 0.575179
v -3.184021 19.562088 1.264934
v -2.510211 29.343130 1.757673
v -1.916979 39.124176 2.154099
v -1.368539 48.905220 2.538121
v -0.793126 58.686260 2.959994
v -0.099647 68.467308 3.424644
v 0.802521 78.248352 3.886628
v 1.982911 88.029396 4.252380
v 1.982911 88.029396 4.252380
v -3.843434 -0.000000 2.691202
v -3.843434 -0.000000 2.691202
v -2.638312 9.781043 2.964648
v -1.626020 19.562088 3.015646
v -0.793126 29.343130 2.959989
v -0.083867 39.124176 2.882347
v 0.583107 48.905220 2.823996
v 1.295072 58.686260 2.777300
v 2.124978 68.467308 2.687484
v 3.113035 78.248352 2.461482
v 4.252366 88.029396 1.982925
v 4.252366 88.029396 1.982925
v -1.214370 -0.000001 4.532092
v -1.214370 -0.000001 4.532092
v -0.115426 9.781043 3.966927
v 0.692814 19.562088 3.355305
v 1.295072 29.343130 2.777295
v 1.788487 39.124176 2.261916
v 2.261910 48.905220 1.788495
v 2.777291 58.686260 1.295081
v 3.355302 68.467308 0.692825
v 3.966925 78.248352 -0.115413
v 4.532092 88.029396 -1.214356
v 4.532092 88.029396 -1.214356
v 1.982911 -0.000001 4.252366
v 1.982911 -0.000001 4.252366
v 2.461469 9.781043 3.113037
v 2.687473 19.562088 2.124981
v 2.777291 29.343130 1.295077
v 2.823988 39.124176 0.583113
v 2.882340 48.905220 -0.083859
v 2.959984 58.686260 -0.793116
v 3.015642 68.467308 -1.626009
v 2.964647 78.248352 -2.638299
v 2.691202 88.029396 -3.843420
v 2.691202 88.029396 -3.843420
v 4.252366 -0.000000 1.982911
v 4.252366 -0.000000 1.982911
v 3.886615 9.781044 0.802523
v 3.424633 19.562088 -0.099643
v 2.959984 29.343130 -0.793121
v 2.538114 39.124176 -1.368533
v 2.154092 48.905220 -1.916971
v 1.757668 58.686260 -2.510201
v 1.264930 68.467308 -3.184010
v 0.575177 78.248352 -3.926689
v -0.408932 88.029396 -4.674098
v -0.408932 88.029396 -4.674098
v -0.004313 63.288837 -0.006638
vt 0.116978 0.821394
vt 0.000000 0.500000
vt 0.500000 0.500000
vt 0.111111 0.000000
vt 0.111111 0.111111
vt 0.000000 0.111111
vt 0.000000 0.000000
vt 0.111111 0.222222
vt 0.000000 0.222222
vt 0.111111 0.333333
vt 0.000000 0.333333
vt 0.111111 0.444444
vt 0.000000 0.444444
vt 0.111111 0.555556
vt 0.000000 0.555556
vt 0.111111 0.666667
vt 0.000000 0.666667
vt 0.111111 0.777778
vt 0.000000 0.777778
vt 0.111111 0.888889
vt 0.000000 0.888889
vt 0.111111 1.000000
vt 0.000000 1.000000
vt 0.883022 0.821394
vt 0.500000 0.500000
vt 1.000000 0.500000
vt 0.413176 0.992404
vt 0.222222 0.000000
vt 0.222222 0.111111
vt 0.222222 0.222222
vt 0.222222 0.333333
vt 0.222222 0.444444
vt 0.222222 0.555556
vt 0.222222 0.666667
vt 0.222222 0.777778
vt 0.222222 0.888889
vt 0.222222 1.000000
vt 0.586824 0.992404
vt 0.750000 0.933013
vt 0.333333 0.000000
vt 0.333333 0.111111
vt 0.333333 0.222222
vt 0.333333 0.333333
vt 0.333333 0.444444
vt 0.333333 0.555556
vt 0.333333 0.666667
vt 0.333333 0.777778
vt 0.333333 0.888889
vt 0.333333 1.000000
vt 0.250000 0.933013
vt 0.969846 0.671010
vt 0.444444 0.000000
vt 0.444444 0.111111
vt 0.444444 0.222222
vt 0.444444 0.333333
vt 0.444444 0.444444
vt 0.444444 0.555556
vt 0.444444 0.666667
vt 0.444444 0.777778
vt 0.444444 0.888889
vt 0.444444 1.000000
vt 0.030154 0.671010
vt 0.969846 0.328990
vt 0.555556 0.000000
vt 0.555556 0.111111
vt 0.555556 0.222222
vt 0.555556 0.333333
vt 0.555556 0.444444
vt 0.555556 0.555556
vt 0.555556 0.666667
vt 0.555556 0.777778
vt 0.555556 0.888889
vt 0.555556 1.000000
vt 0.030154 0.328990
vt 0.750000 0.066987
vt 0.666667 0.000000
vt 0.666667 0.111111
vt 0.666667 0.222222
vt 0.666667 0.333333
vt 0.666667 0.444444
vt 0.666667 0.555556
vt 0.666667 0.666667
vt 0.666667 0.777778
vt 0.666667 0.888889
vt 0.666667 1.000000
vt 0.250000 0.066987
vt 0.413176 0.007596
vt 0.777778 0.000000
vt 0.777778 0.111111
vt 0.777778 0.222222
vt 0.777778 0.333333
vt 0.777778 0.444444
vt 0.777778 0.555556
vt 0.777778 0.666667
vt 0.777778 0.777778
vt 0.777778 0.888889
vt 0.777778 1.000000
vt 0.586824 0.007596
vt 0.116978 0.178606
vt 0.888889 0.000000
vt 0.888889 0.111111
vt 0.888889 0.222222
vt 0.888889 0.333333
vt 0.888889 0.444444
vt 0.888889 0.555556
vt 0.888889 0.666667
vt 0.888889 0.777778
vt 0.888889 0.888889
vt 0.888889 1.000000
vt 0.883022 0.178606
vt 1.000000 0.000000
vt 1.000000 0.111111
vt 1.000000 0.222222
vt 1.000000 0.333333
vt 1.000000 0.444444
vt 1.000000 0.555556
vt 1.000000 0.666667
vt 1.000000 0.777778
vt 1.000000 0.888889
vt 1.000000 1.000000
vn 0.0000 -1.0000 -0.0000
vn 0.7516 0.0698 -0.6559
vn 0.5798 0.0524 -0.8131
vn 0.3750 0.0350 -0.9264
vn 0.1484 0.0175 -0.9888
vn -0.0872 0.0000 -0.9962
vn -0.3179 -0.0175 -0.9480
vn -0.5302 -0.0350 -0.8472
vn -0.7122 -0.0524 -0.7001
vn -0.8541 -0.0698 -0.5154
vn 0.0000 1.0000 0.0000
vn 0.1542 0.0698 -0.9856
vn -0.0785 0.0524 -0.9955
vn -0.3082 0.0350 -0.9507
vn -0.5219 0.0175 -0.8528
vn -0.7071 0.0000 -0.7071
vn -0.8528 -0.0175 -0.5219
vn -0.9507 -0.0350 -0.3082
vn -0.9955 -0.0524 -0.0785
vn -0.9856 -0.0698 0.1542
vn -0.5154 0.0698 -0.8541
vn -0.7001 0.0524 -0.7122
vn -0.8472 0.0350 -0.5302
vn -0.9480 0.0175 -0.3179
vn -0.9962 0.0000 -0.0872
vn -0.9888 -0.0175 0.1484
vn -0.9264 -0.0350 0.3750
vn -0.8131 -0.0524 0.5798
vn -0.6559 -0.0698 0.7516
vn -0.9438 0.0698 -0.3230
vn -0.9940 0.0524 -0.0956
vn -0.9898 0.0350 0.1384
vn -0.9305 0.0175 0.3658
vn -0.8192 -0.0000 0.5736
vn -0.6620 -0.0175 0.7493
vn -0.4686 -0.0350 0.8827
vn -0.2502 -0.0524 0.9668
vn -0.0193 -0.0698 0.9974
vn -0.9306 0.0698 0.3592
vn -0.8229 0.0524 0.5658
vn -0.6692 0.0350 0.7422
vn -0.4777 0.0175 0.8784
vn -0.2588 -0.0000 0.9659
vn -0.0255 -0.0175 0.9995
vn 0.2085 -0.0350 0.9774
vn 0.4298 -0.0524 0.9014
vn 0.6263 -0.0698 0.7764
vn -0.4820 0.0698 0.8734
vn -0.2667 0.0524 0.9623
vn -0.0356 0.0350 0.9988
vn 0.1987 0.0175 0.9799
vn 0.4226 -0.0000 0.9063
vn 0.6229 -0.0175 0.7821
vn 0.7880 -0.0350 0.6147
vn 0.9086 -0.0524 0.4143
vn 0.9789 -0.0698 0.1922
vn 0.1922 0.0698 0.9789
vn 0.4143 0.0524 0.9086
vn 0.6147 0.0350 0.7880
vn 0.7821 0.0175 0.6229
vn 0.9063 -0.0000 0.4226
vn 0.9799 -0.0175 0.1987
vn 0.9988 -0.0350 -0.0356
vn 0.9623 -0.0524 -0.2667
vn 0.8734 -0.0698 -0.4820
vn 0.7764 0.0698 0.6263
vn 0.9014 0.0524 0.4298
vn 0.9774 0.0350 0.2085
vn 0.9995 0.0175 -0.0255
vn 0.9659 0.0000 -0.2588
vn 0.8784 -0.0175 -0.4777
vn 0.7422 -0.0350 -0.6692
vn 0.5658 -0.0524 -0.8229
vn 0.3592 -0.0698 -0.9306
vn 0.9974 0.0698 -0.0193
vn 0.9668 0.0524 -0.2502
vn 0.8827 0.0350 -0.4686
vn 0.7493 0.0175 -0.6620
vn 0.5736 0.0000 -0.8192
vn 0.3658 -0.0175 -0.9305
vn 0.1384 -0.0350 -0.9898
vn -0.0956 -0.0524 -0.9940
vn -0.3230 -0.0698 -0.9438
usemtl Mat_1
s off
f 15/1/1 3/2/1 1/3/1
f 16/4/2 17/5/2 5/6/2 4/7/2
f 17/5/3 18/8/3 6/9/3 5/6/3
f 18/8/4 19/10/4 7/11/4 6/9/4
f 19/10/5 20/12/5 8/13/5 7/11/5
f 20/12/6 21/14/6 9/15/6 8/13/6
f 21/14/7 22/16/7 10/17/7 9/15/7
f 22/16/8 23/18/8 11/19/8 10/17/8
f 23/18/9 24/20/9 12/21/9 11/19/9
f 24/20/10 25/22/10 13/23/10 12/21/10
f 26/24/11 2/25/11 14/26/11
f 27/27/1 15/1/1 1/3/1
f 28/28/12 29/29/12 17/5/12 16/4/12
f 29/29/13 30/30/13 18/8/13 17/5/13
f 30/30/14 31/31/14 19/10/14 18/8/14
f 31/31/15 32/32/15 20/12/15 19/10/15
f 32/32/16 33/33/16 21/14/16 20/12/16
f 33/33/17 34/34/17 22/16/17 21/14/17
f 34/34/18 35/35/18 23/18/18 22/16/18
f 35/35/19 36/36/19 24/20/19 23/18/19
f 36/36/20 37/37/20 25/22/20 24/20/20
f 38/38/11 2/25/11 26/24/11
f 39/39/1 27/27/1 1/3/1
f 40/40/21 41/41/21 29/29/21 28/28/21
f 41/41/22 42/42/22 30/30/22 29/29/22
f 42/42/23 43/43/23 31/31/23 30/30/23
f 43/43/24 44/44/24 32/32/24 31/31/24
f 44/44/25 45/45/25 33/33/25 32/32/25
f 45/45/26 46/46/26 34/34/26 33/33/26
f 46/46/27 47/47/27 35/35/27 34/34/27
f 47/47/28 48/48/28 36/36/28 35/35/28
f 48/48/29 49/49/29 37/37/29 36/36/29
f 50/50/11 2/25/11 38/38/11
f 51/51/1 39/39/1 1/3/1
f 52/52/30 53/53/30 41/41/30 40/40/30
f 53/53/31 54/54/31 42/42/31 41/41/31
f 54/54/32 55/55/32 43/43/32 42/42/32
f 55/55/33 56/56/33 44/44/33 43/43/33
f 56/56/34 57/57/34 45/45/34 44/44/34
f 57/57/35 58/58/35 46/46/35 45/45/35
f 58/58/36 59/59/36 47/47/36 46/46/36
f 59/59/37 60/60/37 48/48/37 47/47/37
f 60/60/38 61/61/38 49/49/38 48/48/38
f 62/62/11 2/25/11 50/50/11
f 63/63/1 51/51/1 1/3/1
f 64/64/39 65/65/39 53/53/39 52/52/39
f 65/65/40 66/66/40 54/54/40 53/53/40
f 66/66/41 67/67/41 55/55/41 54/54/41
f 67/67/42 68/68/42 56/56/42 55/55/42
f 68/68/43 69/69/43 57/57/43 56/56/43
f 69/69/44 70/70/44 58/58/44 57/57/44
f 70/70/45 71/71/45 59/59/45 58/58/45
f 71/71/46 72/72/46 60/60/46 59/59/46
f 72/72/47 73/73/47 61/61/47 60/60/47
f 74/74/11 2/25/11 62/62/11
f 75/75/1 63/63/1 1/3/1
f 76/76/48 77/77/48 65/65/48 64/64/48
f 77/77/49 78/78/49 66/66/49 65/65/49
f 78/78/50 79/79/50 67/67/50 66/66/50
f 79/79/51 80/80/51 68/68/51 67/67/51
f 80/80/52 81/81/52 69/69/52 68/68/52
f 81/81/53 82/82/53 70/70/53 69/69/53
f 82/82/54 83/83/54 71/71/54 70/70/54
f 83/83/55 84/84/55 72/72/55 71/71/55
f 84/84/56 85/85/56 73/73/56 72/72/56
f 86/86/11 2/25/11 74/74/11
f 87/87/1 75/75/1 1/3/1
f 88/88/57 89/89/57 77/77/57 76/76/57
f 89/89/58 90/90/58 78/78/58 77/77/58
f 90/90/59 91/91/59 79/79/59 78/78/59
f 91/91/60 92/92/60 80/80/60 79/79/60
f 92/92/61 93/93/61 81/81/61 80/80/61
f 93/93/62 94/94/62 82/82/62 81/81/62
f 94/94/63 95/95/63 83/83/63 82/82/63
f 95/95/64 96/96/64 84/84/64 83/83/64
f 96/96/65 97/97/65 85/85/65 84/84/65
f 98/98/11 2/25/11 86/86/11
f 99/99/1 87/87/1 1/3/1
f 100/100/66 101/101/66 89/89/66 88/88/66
f 101/101/67 102/102/67 90/90/67 89/89/67
f 102/102/68 103/103/68 91/91/68 90/90/68
f 103/103/69 104/104/69 92/92/69 91/91/69
f 104/104/70 105/105/70 93/93/70 92/92/70
f 105/105/71 106/106/71 94/94/71 93/93/71
f 106/106/72 107/107/72 95/95/72 94/94/72
f 107/107/73 108/108/73 96/96/73 95/95/73
f 108/108/74 109/109/74 97/97/74 96/96/74
f 110/110/11 2/25/11 98/98/11
f 3/2/1 99/99/1 1/3/1
f 4/111/75 5/112/75 101/101/75 100/100/75
f 5/112/76 6/113/76 102/102/76 101/101/76
f 6/113/77 7/114/77 103/103/77 102/102/77
f 7/114/78 8/115/78 104/104/78 103/103/78
f 8/115/79 9/116/79 105/105/79 104/104/79
f 9/116/80 10/117/80 106/106/80 105/105/80
f 10/117/81 11/118/81 107/107/81 106/106/81
f 11/118/82 12/119/82 108/108/82 107/107/82
f 12/119/83 13/120/83 109/109/83 108/108/83
f 14/26/11 2/25/11 110/110/11
