# Blender v3.1.2 OBJ File: 'LowPoly Pine Trees.blend'
# www.blender.org
mtllib tree3Leaf.mtl
o pine01
v 0.063328 -0.111118 -0.837135
v -0.570569 -0.111118 -0.471155
v -0.570569 -0.111118 0.260806
v 0.063328 -0.111118 0.626786
v 0.697224 -0.111118 0.260805
v 0.697224 -0.111118 -0.471155
v 0.480572 2.115130 -0.374648
v 0.450301 5.725411 -0.312712
v 0.093147 5.766107 -0.520249
v 0.033509 1.981034 -0.644121
v 0.033509 1.981034 0.433772
v 0.093147 5.766107 0.309900
v 0.450301 5.725411 0.102363
v 0.480572 2.115130 0.164299
v -0.413555 1.846937 -0.374648
v -0.264007 5.806802 -0.312712
v -0.264007 5.806802 0.102363
v -0.413555 1.846937 0.164299
vt 0.013335 0.380911
vt 0.032684 0.490541
vt 0.000000 0.480050
vt 0.030416 0.182607
vt 0.036616 0.381864
vt 0.103816 0.337343
vt 0.131557 0.272034
vt 0.138902 0.350214
vt 0.106887 0.256971
vt 0.125833 0.109243
vt 0.144286 0.397991
vt 0.179110 0.519776
vt 0.138902 0.519776
vt 0.147594 0.201284
vt 0.173891 0.397991
vt 0.184127 0.411508
vt 0.219286 0.518395
vt 0.179110 0.518395
vt 0.209365 0.196645
vt 0.213709 0.411508
vt 0.069265 0.350214
vt 0.082610 0.260861
vt 0.106038 0.103640
vt 0.069265 0.485226
vt 0.048736 0.190577
vt 0.062766 0.371180
vt 0.170394 0.201284
vt 0.186582 0.196645
vt 0.086547 0.112634
vt 0.069265 0.189584
vn -0.4983 0.0825 -0.8631
vn -0.5232 0.0331 -0.8516
vn -0.4983 0.0825 0.8631
vn -0.5232 0.0331 0.8516
vn 0.9953 0.0969 0.0000
vn 1.0000 0.0084 0.0000
vn -0.9968 0.0799 0.0000
vn -0.9993 0.0377 0.0000
vn 0.4981 0.0867 0.8628
vn 0.5117 0.0200 0.8589
vn 0.4981 0.0867 -0.8628
vn 0.5117 0.0200 -0.8589
vn -0.5304 0.0704 -0.8448
vn -0.4990 0.0362 -0.8658
vn -0.5304 0.0704 0.8448
vn -0.4990 0.0362 0.8658
vn 0.4954 0.0857 0.8645
vn 0.5040 0.0190 0.8635
vn 0.4954 0.0857 -0.8645
vn 0.5040 0.0190 -0.8635
usemtl log
s off
f 15/1/1 1/2/1 2/3/1
f 16/4/2 10/5/2 15/1/2
f 4/6/3 18/7/3 3/8/3
f 11/9/4 17/10/4 18/7/4
f 7/11/5 5/12/5 6/13/5
f 8/14/6 14/15/6 7/11/6
f 18/16/7 2/17/7 3/18/7
f 18/16/8 16/19/8 15/20/8
f 5/21/9 11/9/9 4/6/9
f 14/22/10 12/23/10 11/9/10
f 10/5/11 6/24/11 1/2/11
f 9/25/12 7/26/12 10/5/12
f 15/1/13 10/5/13 1/2/13
f 16/4/14 9/25/14 10/5/14
f 4/6/15 11/9/15 18/7/15
f 11/9/16 12/23/16 17/10/16
f 7/11/5 14/15/5 5/12/5
f 8/14/6 13/27/6 14/15/6
f 18/16/7 15/20/7 2/17/7
f 18/16/8 17/28/8 16/19/8
f 5/21/17 14/22/17 11/9/17
f 14/22/18 13/29/18 12/23/18
f 10/5/19 7/26/19 6/24/19
f 9/25/20 8/30/20 7/26/20
