# Blender v3.1.2 OBJ File: ''
# www.blender.org
mtllib tree1Leaf.mtl
o low_poly_tree
v 0.000000 88.029396 0.000014
v -1.077656 68.467308 -3.252172
v -2.083424 78.248352 -3.377733
v -3.317721 88.029396 -3.317707
v -3.317721 88.029396 -3.317707
v -2.915996 68.467308 -1.798602
v -3.767168 78.248352 -1.248291
v -4.674112 88.029396 -0.408917
v -4.674112 88.029396 -0.408917
v -3.389909 68.467308 0.496559
v -3.688213 78.248352 1.465246
v -3.843434 88.029396 2.691216
v -3.843434 88.029396 2.691216
v -2.277645 68.467308 2.559381
v -1.883501 78.248352 3.493184
v -1.214370 88.029396 4.532106
v -1.214370 88.029396 4.532106
v -0.099647 68.467308 3.424644
v 0.802521 78.248352 3.886628
v 1.982911 88.029396 4.252380
v 1.982911 88.029396 4.252380
v 2.124978 68.467308 2.687484
v 3.113035 78.248352 2.461482
v 4.252366 88.029396 1.982925
v 4.252366 88.029396 1.982925
v 3.355302 68.467308 0.692825
v 3.966925 78.248352 -0.115413
v 4.532092 88.029396 -1.214356
v 4.532092 88.029396 -1.214356
v 3.015642 68.467308 -1.626009
v 2.964647 78.248352 -2.638299
v 2.691202 88.029396 -3.843420
v 2.691202 88.029396 -3.843420
v 1.264930 68.467308 -3.184010
v 0.575177 78.248352 -3.926689
v -0.408932 88.029396 -4.674098
v -0.408932 88.029396 -4.674098
v -0.004313 63.288837 -0.006638
v 0.000595 176.825409 0.005327
v -10.758840 169.574600 1.159157
v 9.024914 68.925720 -6.712247
v 4.159249 171.170059 11.487702
v 4.710920 67.514633 -11.424195
v 0.012251 68.565582 -11.538166
v -4.186980 69.163071 -10.262324
v -9.953664 68.504066 -5.947742
v -1.199796 171.037231 -12.018701
v -11.600461 68.042221 2.945472
v 12.737964 171.872223 -1.222983
v -8.370664 68.178772 8.373065
v -4.396697 68.733452 10.532341
v 2.869584 68.371033 11.342385
v -9.080715 170.613876 -7.400567
v 7.563419 69.574547 7.663641
v 11.392580 68.602829 1.679791
v 23.087744 79.736252 -0.185623
v 20.262873 80.187462 -8.408714
v 16.030878 79.845406 -16.239044
v 8.369284 80.213638 -20.224380
v -0.072417 79.812851 -22.704079
v -8.206462 80.404434 -19.871300
v -16.499018 79.566727 -16.296764
v -19.587694 80.487144 -8.198689
v -22.086672 80.113312 0.028423
v -18.935926 80.818962 7.631873
v -15.382832 80.280251 15.379373
v -8.594337 79.856026 20.919687
v -0.022164 80.371529 21.568577
v 8.076388 80.468910 19.687088
v 16.337732 79.659065 16.212145
v 20.673513 79.982239 8.500776
v 19.901323 98.253738 -20.377073
v 10.330574 98.318199 -25.858311
v -0.342396 98.279556 -28.225697
v -10.536815 98.442169 -24.444950
v -19.143518 98.434250 -18.608604
v -26.079445 98.293770 -10.428271
v -29.775290 98.122963 0.306140
v -24.885368 98.394455 10.707292
v -20.434839 98.179237 20.886215
v -10.720212 98.220795 26.740063
v 0.351306 98.318008 27.845114
v 11.374102 98.207825 26.608215
v 20.179344 98.282677 19.694115
v 24.754766 98.440079 9.842921
v 27.821945 98.320351 -0.351831
v 26.009390 98.272690 -11.142315
v -5.496269 119.597054 -31.423941
v -16.263117 119.415817 -25.484571
v -26.848936 119.698303 -18.899328
v -29.880144 119.456207 -6.615726
v -30.216644 119.464890 5.333209
v -25.070797 119.363861 16.022373
v -16.543669 119.276657 23.757502
v -6.656587 119.473534 30.034664
v 5.357165 119.484306 30.394157
v 16.187054 119.399384 25.353880
v 25.709661 119.542915 18.031242
v 29.027094 119.360481 6.390264
v 31.264637 119.579597 -5.474728
v 26.975597 119.602943 -17.130632
v 17.886066 119.516945 -25.519148
v 6.858931 119.559448 -30.800072
v -25.292032 140.581558 -12.141595
v -27.048847 140.297653 -1.445153
v -26.060440 140.456207 9.173921
v -21.511526 140.815125 19.227074
v -11.527812 140.198822 24.139141
v -1.634751 140.874054 29.006731
v 9.527913 140.811646 27.220613
v 18.425354 140.445541 20.537954
v 25.983644 140.811157 12.509851
v 27.057068 140.300079 1.445994
v 26.026808 140.445908 -9.163611
v 20.836756 140.558975 -18.671396
v 12.363886 140.720154 -25.709494
v 1.483542 140.414322 -27.445061
v -9.765656 141.050339 -27.999676
v -19.738823 141.051041 -22.133009
v -20.245581 158.559708 7.400013
v -15.894795 158.594986 14.615424
v -9.853582 159.379730 20.754765
v -1.070779 159.132416 22.522381
v 7.318387 158.371841 19.927792
v 13.792011 157.806641 14.556187
v 20.412960 159.149063 9.628654
v 22.670168 159.160263 1.165940
v 19.655785 158.211060 -7.266456
v 16.136829 158.737534 -14.764247
v 8.616767 158.055695 -18.808952
v 1.032308 158.871185 -22.109518
v -7.743978 159.458008 -21.765217
v -14.818010 158.788971 -16.224167
v -19.067530 158.231934 -8.779846
v -21.660746 158.639740 -0.925326
v 7.197800 170.269821 -8.864365
v -8.003130 171.605530 9.710908
v 8.936966 170.416260 7.281359
v -0.379412 169.700241 10.863130
vt 0.111111 0.777778
vt 0.111111 0.888889
vt 0.000000 0.888889
vt 0.000000 0.777778
vt 0.111111 1.000000
vt 0.000000 1.000000
vt 0.883022 0.821394
vt 0.500000 0.500000
vt 1.000000 0.500000
vt 0.222222 0.777778
vt 0.222222 0.888889
vt 0.222222 1.000000
vt 0.586824 0.992404
vt 0.333333 0.777778
vt 0.333333 0.888889
vt 0.333333 1.000000
vt 0.250000 0.933013
vt 0.444444 0.777778
vt 0.444444 0.888889
vt 0.444444 1.000000
vt 0.030154 0.671010
vt 0.555556 0.777778
vt 0.555556 0.888889
vt 0.555556 1.000000
vt 0.030154 0.328990
vt 0.666667 0.777778
vt 0.666667 0.888889
vt 0.666667 1.000000
vt 0.250000 0.066987
vt 0.777778 0.777778
vt 0.777778 0.888889
vt 0.777778 1.000000
vt 0.586824 0.007596
vt 0.888889 0.777778
vt 0.888889 0.888889
vt 0.888889 1.000000
vt 0.883022 0.178606
vt 1.000000 0.777778
vt 1.000000 0.888889
vt 1.000000 1.000000
vt 0.062500 0.250000
vt 0.000000 0.250000
vt 0.000000 0.125000
vt 0.125000 0.250000
vt 0.062500 0.125000
vt 0.187500 0.250000
vt 0.125000 0.125000
vt 0.250000 0.250000
vt 0.187500 0.125000
vt 0.312500 0.250000
vt 0.250000 0.125000
vt 0.375000 0.250000
vt 0.312500 0.125000
vt 0.437500 0.250000
vt 0.375000 0.125000
vt 0.500000 0.250000
vt 0.437500 0.125000
vt 0.562500 0.250000
vt 0.500000 0.125000
vt 0.625000 0.250000
vt 0.562500 0.125000
vt 0.687500 0.250000
vt 0.625000 0.125000
vt 0.750000 0.250000
vt 0.687500 0.125000
vt 0.812500 0.250000
vt 0.750000 0.125000
vt 0.875000 0.250000
vt 0.812500 0.125000
vt 0.937500 0.250000
vt 0.875000 0.125000
vt 1.000000 0.250000
vt 0.937500 0.125000
vt 0.062500 0.375000
vt 0.000000 0.375000
vt 0.125000 0.375000
vt 0.187500 0.375000
vt 0.250000 0.375000
vt 0.312500 0.375000
vt 0.375000 0.375000
vt 0.437500 0.375000
vt 0.500000 0.375000
vt 0.562500 0.375000
vt 0.625000 0.375000
vt 0.687500 0.375000
vt 0.750000 0.375000
vt 0.812500 0.375000
vt 0.875000 0.375000
vt 0.937500 0.375000
vt 1.000000 0.375000
vt 0.062500 0.500000
vt 0.000000 0.500000
vt 0.125000 0.500000
vt 0.187500 0.500000
vt 0.250000 0.500000
vt 0.312500 0.500000
vt 0.375000 0.500000
vt 0.437500 0.500000
vt 0.500000 0.500000
vt 0.562500 0.500000
vt 0.625000 0.500000
vt 0.687500 0.500000
vt 0.750000 0.500000
vt 0.812500 0.500000
vt 0.875000 0.500000
vt 0.937500 0.500000
vt 1.000000 0.500000
vt 0.062500 0.625000
vt 0.000000 0.625000
vt 0.125000 0.625000
vt 0.187500 0.625000
vt 0.250000 0.625000
vt 0.312500 0.625000
vt 0.375000 0.625000
vt 0.437500 0.625000
vt 0.500000 0.625000
vt 0.562500 0.625000
vt 0.625000 0.625000
vt 0.687500 0.625000
vt 0.750000 0.625000
vt 0.812500 0.625000
vt 0.875000 0.625000
vt 0.937500 0.625000
vt 1.000000 0.625000
vt 0.062500 0.750000
vt 0.000000 0.750000
vt 0.125000 0.750000
vt 0.187500 0.750000
vt 0.250000 0.750000
vt 0.312500 0.750000
vt 0.375000 0.750000
vt 0.437500 0.750000
vt 0.500000 0.750000
vt 0.562500 0.750000
vt 0.625000 0.750000
vt 0.687500 0.750000
vt 0.750000 0.750000
vt 0.812500 0.750000
vt 0.875000 0.750000
vt 0.937500 0.750000
vt 1.000000 0.750000
vt 0.062500 0.875000
vt 0.000000 0.875000
vt 0.125000 0.875000
vt 0.062500 0.875000
vt 0.062500 0.750000
vt 0.187500 0.875000
vt 0.125000 0.875000
vt 0.250000 0.875000
vt 0.312500 0.875000
vt 0.375000 0.875000
vt 0.312500 0.875000
vt 0.312500 0.750000
vt 0.437500 0.875000
vt 0.375000 0.875000
vt 0.500000 0.875000
vt 0.437500 0.875000
vt 0.437500 0.750000
vt 0.562500 0.875000
vt 0.500000 0.875000
vt 0.625000 0.875000
vt 0.562500 0.875000
vt 0.562500 0.750000
vt 0.687500 0.875000
vt 0.625000 0.875000
vt 0.750000 0.875000
vt 0.687500 0.875000
vt 0.687500 0.750000
vt 0.812500 0.875000
vt 0.750000 0.875000
vt 0.875000 0.875000
vt 0.812500 0.875000
vt 0.812500 0.750000
vt 0.937500 0.875000
vt 0.875000 0.875000
vt 1.000000 0.875000
vt 0.937500 0.875000
vt 0.937500 0.750000
vt 0.000000 0.000000
vt 0.000000 1.000000
vt 0.125000 0.125000
vt 0.062500 0.125000
vt 0.062500 0.000000
vt 0.062500 1.000000
vt 0.062500 0.875000
vt 0.125000 0.000000
vt 0.125000 1.000000
vt 0.187500 0.000000
vt 0.187500 1.000000
vt 0.250000 0.000000
vt 0.250000 1.000000
vt 0.312500 0.000000
vt 0.312500 1.000000
vt 0.312500 0.875000
vt 0.437500 0.125000
vt 0.375000 0.125000
vt 0.375000 0.000000
vt 0.375000 1.000000
vt 0.437500 0.000000
vt 0.437500 1.000000
vt 0.562500 0.125000
vt 0.500000 0.125000
vt 0.500000 0.000000
vt 0.500000 1.000000
vt 0.562500 0.000000
vt 0.562500 1.000000
vt 0.625000 0.000000
vt 0.625000 1.000000
vt 0.687500 0.000000
vt 0.687500 1.000000
vt 0.812500 0.125000
vt 0.750000 0.125000
vt 0.750000 0.000000
vt 0.750000 1.000000
vt 0.812500 0.000000
vt 0.812500 1.000000
vt 0.875000 0.000000
vt 0.875000 1.000000
vt 1.000000 0.125000
vt 0.937500 0.125000
vt 0.937500 0.000000
vt 0.937500 1.000000
vt 0.937500 0.875000
vt 0.125000 0.125000
vt 0.125000 0.250000
vt 0.062500 0.125000
vt 0.437500 0.125000
vt 0.437500 0.250000
vt 0.375000 0.125000
vt 0.562500 0.125000
vt 0.562500 0.250000
vt 0.500000 0.125000
vt 0.812500 0.125000
vt 0.812500 0.250000
vt 0.750000 0.125000
vt 1.000000 0.125000
vt 1.000000 0.250000
vt 0.937500 0.125000
vn -0.7122 -0.0524 -0.7001
vn -0.8541 -0.0698 -0.5154
vn 0.0000 1.0000 0.0000
vn -0.9955 -0.0524 -0.0785
vn -0.9856 -0.0698 0.1542
vn -0.8131 -0.0524 0.5798
vn -0.6559 -0.0698 0.7516
vn -0.2502 -0.0524 0.9668
vn -0.0193 -0.0698 0.9974
vn 0.4298 -0.0524 0.9014
vn 0.6263 -0.0698 0.7764
vn 0.9086 -0.0524 0.4143
vn 0.9789 -0.0698 0.1922
vn 0.9623 -0.0524 -0.2667
vn 0.8734 -0.0698 -0.4820
vn 0.5658 -0.0524 -0.8229
vn 0.3592 -0.0698 -0.9306
vn -0.0956 -0.0524 -0.9940
vn -0.3230 -0.0698 -0.9438
vn 0.6436 -0.7197 -0.2606
vn 0.6464 -0.6931 -0.3191
vn 0.2886 -0.7279 -0.6220
vn 0.2517 -0.5992 -0.7600
vn -0.2857 -0.6763 -0.6790
vn -0.2319 -0.6786 -0.6969
vn -0.7421 -0.6362 -0.2107
vn -0.7309 -0.6347 -0.2508
vn -0.7455 -0.5604 0.3609
vn -0.7691 -0.5567 0.3140
vn -0.5129 -0.6329 0.5799
vn -0.0139 -0.6853 0.7282
vn 0.1861 -0.6109 0.7695
vn 0.2516 -0.6206 0.7427
vn 0.5823 -0.7573 0.2957
vn 0.6914 -0.6908 0.2117
vn 0.3727 -0.6539 -0.6585
vn 0.1697 -0.6335 -0.7549
vn -0.2645 -0.6798 -0.6841
vn -0.4436 -0.6117 -0.6550
vn -0.6402 -0.5343 -0.5520
vn -0.7486 -0.6067 -0.2674
vn -0.6197 -0.7209 0.3102
vn -0.7610 -0.5638 0.3208
vn -0.3731 -0.6865 0.6241
vn -0.0622 -0.7245 0.6865
vn 0.0820 -0.6140 0.7850
vn 0.4581 -0.6770 0.5760
vn 0.6497 -0.7024 0.2906
vn 0.7736 -0.5867 0.2396
vn 0.7888 -0.6007 -0.1299
vn 0.6409 -0.6408 -0.4226
vn -0.3296 -0.7127 -0.6192
vn -0.4501 -0.5549 -0.6997
vn -0.6554 -0.7344 -0.1762
vn -0.7442 -0.6677 -0.0205
vn -0.6520 -0.6932 0.3073
vn -0.5052 -0.6655 0.5494
vn -0.4497 -0.5221 0.7247
vn -0.0217 -0.6654 0.7462
vn 0.3078 -0.6728 0.6727
vn 0.4975 -0.5905 0.6354
vn 0.6735 -0.7108 0.2031
vn 0.8235 -0.5485 0.1452
vn 0.6978 -0.6682 -0.2581
vn 0.4826 -0.7079 -0.5157
vn 0.3236 -0.6569 -0.6810
vn 0.0359 -0.6604 -0.7501
vn -0.7827 -0.6054 -0.1446
vn -0.8412 -0.5338 0.0863
vn -0.7935 -0.4785 0.3761
vn -0.3654 -0.6559 0.6605
vn -0.3801 -0.4096 0.8293
vn 0.1222 -0.6071 0.7851
vn 0.4448 -0.6393 0.6272
vn 0.6405 -0.5033 0.5801
vn 0.7568 -0.6454 0.1032
vn 0.8385 -0.5377 -0.0888
vn 0.7351 -0.5416 -0.4077
vn 0.5238 -0.5583 -0.6434
vn 0.1410 -0.6159 -0.7751
vn 0.0207 -0.4235 -0.9057
vn -0.4056 -0.6002 -0.6894
vn -0.6520 -0.6485 -0.3929
vn -0.8144 -0.3068 0.4926
vn -0.6862 -0.1964 0.7004
vn -0.1924 -0.3871 0.9017
vn 0.2335 -0.4185 0.8777
vn 0.5596 -0.4140 0.7180
vn 0.5651 0.1735 0.8066
vn 0.9185 -0.3106 0.2446
vn 0.8531 -0.4560 -0.2536
vn 0.8885 -0.1639 -0.4285
vn 0.4595 -0.4172 -0.7841
vn 0.3852 -0.1203 -0.9149
vn -0.0541 -0.2405 -0.9691
vn -0.5348 -0.4195 -0.7334
vn -0.7817 -0.4026 -0.4763
vn -0.9381 -0.1714 -0.3008
vn -0.9431 -0.2929 0.1575
vn -0.7338 0.6751 0.0761
vn 0.1113 0.5880 -0.8012
vn 0.0536 0.6649 0.7450
vn -0.3168 0.7120 0.6266
vn 0.6034 0.5374 0.5891
vn 0.6669 0.6544 -0.3563
vn 0.6037 0.6959 0.3890
vn -0.5007 0.6605 -0.5595
vn 0.6119 0.5579 -0.5606
vn 0.7531 0.6263 0.2017
vn 0.3250 0.6195 -0.7145
vn -0.6601 0.7067 -0.2546
vn -0.3831 0.7119 -0.5885
vn 0.5553 0.5656 0.6097
vn -0.7721 0.6311 -0.0747
vn -0.1127 0.7395 0.6636
vn 0.4363 -0.8859 -0.1572
vn -0.5600 0.8284 -0.0163
vn 0.8367 0.5448 0.0560
vn 0.0748 0.7612 -0.6442
vn 0.4454 -0.8838 -0.1431
vn 0.1241 0.8276 0.5474
vn -0.1898 -0.8927 -0.4088
vn -0.3277 0.7951 0.5103
vn -0.2479 -0.8808 -0.4034
vn 0.3918 0.8737 0.2884
vn -0.2126 -0.8828 -0.4189
vn 0.4927 0.6504 -0.5782
vn -0.6982 0.5811 0.4182
vn 0.3702 0.8739 0.3151
vn -0.4028 -0.9071 -0.1217
vn -0.7069 0.6101 -0.3579
vn -0.3614 0.7014 -0.6144
vn 0.2988 0.8672 -0.3985
vn -0.3229 -0.9216 0.2154
vn 0.7717 0.5397 -0.3366
vn -0.1036 -0.9006 0.4221
vn 0.2443 0.8640 -0.4403
vn -0.0924 -0.8998 0.4264
vn -0.7144 0.6879 0.1281
vn 0.3651 0.6331 -0.6825
vn -0.2779 0.8761 -0.3940
vn 0.4347 -0.8578 0.2741
vn 0.4135 0.5692 0.7107
vn 0.3489 -0.8638 0.3636
vn -0.5595 0.8288 -0.0091
vn 0.6867 0.6730 -0.2750
vn 0.2888 0.5757 0.7649
vn 0.6744 -0.7057 -0.2174
vn 0.7263 0.6846 -0.0611
vn 0.6975 -0.5329 -0.4790
vn -0.1391 -0.6982 -0.7022
vn -0.3001 -0.6795 -0.6695
vn -0.3452 -0.7419 -0.5748
vn -0.6181 0.5764 0.5345
vn -0.7236 -0.6693 -0.1687
vn -0.7115 0.5990 -0.3673
vn -0.6649 -0.6234 0.4114
vn -0.2573 -0.7096 0.6559
vn -0.1157 -0.6602 0.7421
vn 0.0126 0.6397 -0.7685
vn 0.5040 -0.7701 0.3911
vn 0.5348 -0.7104 0.4576
vn 0.3277 0.6191 -0.7137
vn 0.9276 0.2127 -0.3070
vn 0.7931 0.4140 -0.4467
vn 0.4541 0.2747 -0.8476
vn 0.2352 0.4323 -0.8705
vn -0.3117 0.1810 -0.9328
vn -0.3924 0.4413 -0.8070
vn -0.9241 0.1122 -0.3652
vn -0.8918 0.3746 -0.2538
vn -0.9243 0.0176 0.3814
vn -0.8094 0.4289 0.4010
vn -0.5668 0.3922 0.7245
vn -0.0859 0.1990 0.9762
vn 0.2115 0.3112 0.9265
vn 0.3808 0.4716 0.7953
vn 0.8338 0.2725 0.4802
vn 0.8830 0.4070 0.2339
vn 0.4202 0.5426 -0.7274
vn 0.1762 0.5681 -0.8038
vn -0.3069 0.4355 -0.8463
vn -0.4717 0.5427 -0.6949
vn -0.5900 0.6424 -0.4892
vn -0.6921 0.6850 -0.2274
vn -0.8428 0.3745 0.3865
vn -0.6708 0.6748 0.3076
vn -0.4218 0.5814 0.6958
vn -0.0901 0.5047 0.8586
vn 0.0914 0.6471 0.7569
vn 0.5238 0.5224 0.6728
vn 0.8247 0.4100 0.3896
vn 0.7563 0.6161 0.2203
vn 0.7958 0.5901 -0.1363
vn 0.6809 0.5766 -0.4516
vn -0.3946 0.5987 -0.6971
vn -0.3256 0.7646 -0.5562
vn -0.8140 0.5489 -0.1901
vn -0.7330 0.6799 -0.0211
vn -0.7312 0.5809 0.3575
vn -0.5501 0.5674 0.6128
vn -0.3823 0.7197 0.5796
vn -0.0232 0.6554 0.7549
vn 0.3316 0.6304 0.7019
vn 0.4174 0.7181 0.5568
vn 0.7957 0.5651 0.2179
vn 0.6681 0.7309 0.1395
vn 0.6707 0.6999 -0.2454
vn 0.5314 0.6154 -0.5822
vn 0.3230 0.6695 -0.6690
vn 0.0383 0.6955 -0.7175
vn -0.7997 0.5891 -0.1157
vn -0.7767 0.6267 0.0629
vn -0.6657 0.6931 0.2765
vn -0.3456 0.5368 0.7697
vn -0.3244 0.7675 0.5529
vn 0.1239 0.6477 0.7518
vn 0.5127 0.5586 0.6520
vn 0.4819 0.7286 0.4868
usemtl Mat_1
s off
f 6/1/1 7/2/1 3/3/1 2/4/1
f 7/2/2 8/5/2 4/6/2 3/3/2
f 9/7/3 1/8/3 5/9/3
f 10/10/4 11/11/4 7/2/4 6/1/4
f 11/11/5 12/12/5 8/5/5 7/2/5
f 13/13/3 1/8/3 9/7/3
f 14/14/6 15/15/6 11/11/6 10/10/6
f 15/15/7 16/16/7 12/12/7 11/11/7
f 17/17/3 1/8/3 13/13/3
f 18/18/8 19/19/8 15/15/8 14/14/8
f 19/19/9 20/20/9 16/16/9 15/15/9
f 21/21/3 1/8/3 17/17/3
f 22/22/10 23/23/10 19/19/10 18/18/10
f 23/23/11 24/24/11 20/20/11 19/19/11
f 25/25/3 1/8/3 21/21/3
f 26/26/12 27/27/12 23/23/12 22/22/12
f 27/27/13 28/28/13 24/24/13 23/23/13
f 29/29/3 1/8/3 25/25/3
f 30/30/14 31/31/14 27/27/14 26/26/14
f 31/31/15 32/32/15 28/28/15 27/27/15
f 33/33/3 1/8/3 29/29/3
f 34/34/16 35/35/16 31/31/16 30/30/16
f 35/35/17 36/36/17 32/32/17 31/31/17
f 37/37/3 1/8/3 33/33/3
f 2/38/18 3/39/18 35/35/18 34/34/18
f 3/39/19 4/40/19 36/36/19 35/35/19
f 5/9/3 1/8/3 37/37/3
usemtl Mat
f 57/41/20 56/42/20 55/43/20
f 58/44/21 57/41/21 41/45/21
f 59/46/22 58/44/22 41/47/22
f 60/48/23 59/46/23 43/49/23
f 61/50/24 60/48/24 44/51/24
f 62/52/25 61/50/25 45/53/25
f 63/54/26 62/52/26 46/55/26
f 64/56/27 63/54/27 46/57/27
f 65/58/28 64/56/28 48/59/28
f 66/60/29 65/58/29 48/61/29
f 67/62/30 66/60/30 50/63/30
f 68/64/31 67/62/31 51/65/31
f 69/66/32 68/64/32 52/67/32
f 70/68/33 69/66/33 52/69/33
f 71/70/34 70/68/34 54/71/34
f 56/72/35 71/70/35 55/73/35
f 73/74/36 72/75/36 56/42/36
f 74/76/37 73/74/37 57/41/37
f 75/77/38 74/76/38 58/44/38
f 76/78/39 75/77/39 59/46/39
f 77/79/40 76/78/40 60/48/40
f 78/80/41 77/79/41 61/50/41
f 79/81/42 78/80/42 62/52/42
f 80/82/43 79/81/43 63/54/43
f 81/83/44 80/82/44 64/56/44
f 82/84/45 81/83/45 65/58/45
f 83/85/46 82/84/46 66/60/46
f 84/86/47 83/85/47 67/62/47
f 85/87/48 84/86/48 68/64/48
f 86/88/49 85/87/49 69/66/49
f 87/89/50 86/88/50 70/68/50
f 72/90/51 87/89/51 71/70/51
f 89/91/52 88/92/52 72/75/52
f 90/93/53 89/91/53 73/74/53
f 91/94/54 90/93/54 74/76/54
f 92/95/55 91/94/55 75/77/55
f 93/96/56 92/95/56 76/78/56
f 94/97/57 93/96/57 77/79/57
f 95/98/58 94/97/58 78/80/58
f 96/99/59 95/98/59 79/81/59
f 97/100/60 96/99/60 80/82/60
f 98/101/61 97/100/61 81/83/61
f 99/102/62 98/101/62 82/84/62
f 100/103/63 99/102/63 83/85/63
f 101/104/64 100/103/64 84/86/64
f 102/105/65 101/104/65 85/87/65
f 103/106/66 102/105/66 86/88/66
f 88/107/67 103/106/67 87/89/67
f 105/108/68 104/109/68 88/92/68
f 106/110/69 105/108/69 89/91/69
f 107/111/70 106/110/70 90/93/70
f 108/112/71 107/111/71 91/94/71
f 109/113/72 108/112/72 92/95/72
f 110/114/73 109/113/73 93/96/73
f 111/115/74 110/114/74 94/97/74
f 112/116/75 111/115/75 95/98/75
f 113/117/76 112/116/76 96/99/76
f 114/118/77 113/117/77 97/100/77
f 115/119/78 114/118/78 98/101/78
f 116/120/79 115/119/79 99/102/79
f 117/121/80 116/120/80 100/103/80
f 118/122/81 117/121/81 101/104/81
f 119/123/82 118/122/82 102/105/82
f 104/124/83 119/123/83 103/106/83
f 121/125/84 120/126/84 104/109/84
f 122/127/85 121/125/85 105/108/85
f 123/128/86 122/127/86 106/110/86
f 124/129/87 123/128/87 107/111/87
f 125/130/88 124/129/88 108/112/88
f 126/131/89 125/130/89 109/113/89
f 127/132/90 126/131/90 110/114/90
f 128/133/91 127/132/91 111/115/91
f 129/134/92 128/133/92 112/116/92
f 130/135/93 129/134/93 113/117/93
f 131/136/94 130/135/94 114/118/94
f 132/137/95 131/136/95 115/119/95
f 133/138/96 132/137/96 116/120/96
f 134/139/97 133/138/97 117/121/97
f 135/140/98 134/139/98 118/122/98
f 120/141/99 135/140/99 119/123/99
f 137/142/100 40/143/100 120/126/100
f 117/144/101 133/145/101 116/146/101
f 139/147/102 137/148/102 122/127/102
f 42/149/103 139/147/103 123/128/103
f 138/150/104 42/149/104 124/129/104
f 115/151/105 131/152/105 114/153/105
f 49/154/106 138/155/106 126/131/106
f 133/156/107 53/157/107 132/158/107
f 136/159/108 49/160/108 128/133/108
f 127/161/109 49/162/109 126/163/109
f 47/164/110 136/165/110 130/135/110
f 135/166/111 40/167/111 134/168/111
f 53/169/112 47/170/112 132/137/112
f 125/171/113 138/172/113 124/173/113
f 40/174/114 53/175/114 134/139/114
f 123/176/115 139/177/115 122/178/115
f 41/45/116 55/43/116 38/179/116
f 39/180/117 40/143/117 137/142/117
f 113/181/118 129/182/118 112/183/118
f 118/184/119 134/185/119 117/144/119
f 43/49/120 41/47/120 38/186/120
f 39/187/121 137/148/121 139/147/121
f 44/51/122 43/49/122 38/188/122
f 39/189/123 139/147/123 42/149/123
f 45/53/124 44/51/124 38/190/124
f 39/191/125 42/149/125 138/150/125
f 46/55/126 45/53/126 38/192/126
f 116/193/127 132/194/127 115/151/127
f 121/195/128 137/196/128 120/197/128
f 39/198/129 138/155/129 49/154/129
f 48/59/130 46/57/130 38/199/130
f 134/200/131 53/157/131 133/156/131
f 119/201/132 135/202/132 118/203/132
f 39/204/133 49/160/133 136/159/133
f 50/63/134 48/61/134 38/205/134
f 128/206/135 49/162/135 127/161/135
f 51/65/136 50/63/136 38/207/136
f 39/208/137 136/165/137 47/164/137
f 52/67/138 51/65/138 38/209/138
f 120/210/139 40/167/139 135/166/139
f 131/211/140 47/212/140 130/213/140
f 39/214/141 47/170/141 53/169/141
f 54/71/142 52/69/142 38/215/142
f 126/216/143 138/172/143 125/171/143
f 55/73/144 54/71/144 38/217/144
f 39/218/145 53/175/145 40/174/145
f 129/219/146 136/220/146 128/221/146
f 124/222/147 42/223/147 123/176/147
f 41/45/148 57/41/148 55/43/148
f 114/224/149 130/225/149 113/226/149
f 43/49/150 59/46/150 41/47/150
f 44/51/151 60/48/151 43/49/151
f 45/53/152 61/50/152 44/51/152
f 46/55/153 62/52/153 45/53/153
f 122/227/154 137/228/154 121/229/154
f 48/59/155 64/56/155 46/57/155
f 104/230/156 120/231/156 119/232/156
f 50/63/157 66/60/157 48/61/157
f 51/65/158 67/62/158 50/63/158
f 52/67/159 68/64/159 51/65/159
f 132/233/160 47/234/160 131/235/160
f 54/71/161 70/68/161 52/69/161
f 55/73/162 71/70/162 54/71/162
f 130/236/163 136/237/163 129/238/163
f 57/41/164 73/74/164 56/42/164
f 58/44/165 74/76/165 57/41/165
f 59/46/166 75/77/166 58/44/166
f 60/48/167 76/78/167 59/46/167
f 61/50/168 77/79/168 60/48/168
f 62/52/169 78/80/169 61/50/169
f 63/54/170 79/81/170 62/52/170
f 64/56/171 80/82/171 63/54/171
f 65/58/172 81/83/172 64/56/172
f 66/60/173 82/84/173 65/58/173
f 67/62/174 83/85/174 66/60/174
f 68/64/175 84/86/175 67/62/175
f 69/66/176 85/87/176 68/64/176
f 70/68/177 86/88/177 69/66/177
f 71/70/178 87/89/178 70/68/178
f 56/72/179 72/90/179 71/70/179
f 73/74/180 89/91/180 72/75/180
f 74/76/181 90/93/181 73/74/181
f 75/77/182 91/94/182 74/76/182
f 76/78/183 92/95/183 75/77/183
f 77/79/184 93/96/184 76/78/184
f 78/80/185 94/97/185 77/79/185
f 79/81/186 95/98/186 78/80/186
f 80/82/187 96/99/187 79/81/187
f 81/83/188 97/100/188 80/82/188
f 82/84/189 98/101/189 81/83/189
f 83/85/190 99/102/190 82/84/190
f 84/86/191 100/103/191 83/85/191
f 85/87/192 101/104/192 84/86/192
f 86/88/193 102/105/193 85/87/193
f 87/89/194 103/106/194 86/88/194
f 72/90/195 88/107/195 87/89/195
f 89/91/196 105/108/196 88/92/196
f 90/93/197 106/110/197 89/91/197
f 91/94/198 107/111/198 90/93/198
f 92/95/199 108/112/199 91/94/199
f 93/96/200 109/113/200 92/95/200
f 94/97/201 110/114/201 93/96/201
f 95/98/202 111/115/202 94/97/202
f 96/99/203 112/116/203 95/98/203
f 97/100/204 113/117/204 96/99/204
f 98/101/205 114/118/205 97/100/205
f 99/102/206 115/119/206 98/101/206
f 100/103/207 116/120/207 99/102/207
f 101/104/208 117/121/208 100/103/208
f 102/105/209 118/122/209 101/104/209
f 103/106/210 119/123/210 102/105/210
f 88/107/211 104/124/211 103/106/211
f 105/108/212 121/125/212 104/109/212
f 106/110/213 122/127/213 105/108/213
f 107/111/214 123/128/214 106/110/214
f 108/112/215 124/129/215 107/111/215
f 109/113/216 125/130/216 108/112/216
f 110/114/217 126/131/217 109/113/217
f 111/115/218 127/132/218 110/114/218
f 112/116/219 128/133/219 111/115/219
