# Blender v3.1.2 OBJ File: ''
# www.blender.org
mtllib tree2Trunk.mtl
o Cylinder.001
v 0.028745 5.167512 0.026171
v 0.033842 5.167512 0.034998
v 0.032072 5.167512 0.045036
v 0.024263 5.167512 0.051588
v -0.018886 0.626088 -0.264436
v -0.018886 1.220317 -0.373037
v 0.231064 1.220317 -0.282063
v 0.161257 0.626088 -0.198870
v 0.364060 1.220317 -0.051708
v 0.257109 0.626088 -0.032850
v 0.317871 1.220317 0.210242
v 0.223820 0.626088 0.155942
v 0.114110 1.220317 0.381218
v 0.076966 0.626088 0.279167
v -0.151881 1.220317 0.381218
v -0.114738 0.626088 0.279166
v -0.355642 1.220317 0.210242
v -0.261591 0.626088 0.155942
v -0.401831 1.220317 -0.051708
v -0.294880 0.626088 -0.032850
v -0.268836 1.220317 -0.282063
v -0.199028 0.626088 -0.198870
v -0.018886 0.044871 -0.373037
v 0.231064 0.044871 -0.282063
v 0.364060 0.044871 -0.051708
v 0.317871 0.044871 0.210242
v 0.114110 0.044871 0.381218
v -0.151881 0.044871 0.381218
v -0.355642 0.044871 0.210242
v -0.401831 0.044871 -0.051708
v -0.268836 0.044871 -0.282063
vn 0.3371 -0.1693 -0.9261
vn 0.8535 -0.1693 -0.4928
vn 0.9706 -0.1693 0.1711
vn 0.6335 -0.1693 0.7550
vn -0.0000 -0.1693 0.9856
vn -0.6335 -0.1693 0.7550
vn -0.9706 -0.1693 0.1711
vn 0.0000 1.0000 0.0000
vn -0.3371 -0.1693 -0.9261
vn -0.8535 -0.1693 -0.4928
vn 0.0000 -1.0000 -0.0000
vn -0.8530 0.1729 -0.4925
vn -0.3369 0.1729 -0.9255
vn -0.9700 0.1729 0.1710
vn -0.6331 0.1729 0.7545
vn -0.0000 0.1729 0.9849
vn 0.6331 0.1729 0.7545
vn 0.9700 0.1729 0.1710
vn 0.8530 0.1729 -0.4925
vn 0.3369 0.1729 -0.9255
usemtl Bark.001
s 1
f 5//1 6//1 7//1 8//1
f 8//2 7//2 9//2 10//2
f 10//3 9//3 11//3 12//3
f 12//4 11//4 13//4 14//4
f 14//5 13//5 15//5 16//5
f 16//6 15//6 17//6 18//6
f 18//7 17//7 19//7 20//7
f 7//8 6//8 21//8 19//8 17//8 15//8 13//8 11//8 9//8
f 22//9 21//9 6//9 5//9
f 20//10 19//10 21//10 22//10
f 23//11 24//11 25//11 26//11 27//11 28//11 29//11 30//11 31//11
f 30//12 20//12 22//12 31//12
f 31//13 22//13 5//13 23//13
f 29//14 18//14 20//14 30//14
f 28//15 16//15 18//15 29//15
f 27//16 14//16 16//16 28//16
f 26//17 12//17 14//17 27//17
f 25//18 10//18 12//18 26//18
f 24//19 8//19 10//19 25//19
f 23//20 5//20 8//20 24//20
l 2 3
l 1 2
l 3 4
